<svg data-v-0dd9719b="" version="1.0" xmlns="http://www.w3.org/2000/svg" xmlns:xlink="http://www.w3.org/1999/xlink" width="100%" height="100%" viewBox="0 0 340.000000 250.000000" preserveAspectRatio="xMidYMid meet" color-interpolation-filters="sRGB" style="margin: auto;"> <rect data-v-0dd9719b="" x="0" y="0" width="100%" height="100%" fill="#feffff" fill-opacity="1" class="background"></rect> <rect data-v-0dd9719b="" x="0" y="0" width="100%" height="100%" fill="url(#watermark)" fill-opacity="1" class="watermarklayer"></rect> <g data-v-0dd9719b="" fill="#333" class="iconlinesvg-g iconlinesvg" transform="translate(73.50752234458923,104.82601737976074)"><g class="tp-name" transform="translate(0,0)"><g transform="translate(0, 0)"><g data-gra="path-name" fill="#333" transform="scale(1)"><path d="M5.25 0L1.93 0L1.93-24.10L6.92-24.10L6.92-14.92Q7.86-15.84 9.04-16.40Q10.22-16.95 11.82-16.95L11.82-16.95Q13.12-16.95 14.23-16.39Q15.34-15.83 16.15-14.74Q16.95-13.65 17.41-12.08Q17.87-10.50 17.87-8.48L17.87-8.48Q17.87-6.60 17.35-5.01Q16.82-3.41 15.88-2.24Q14.94-1.06 13.63-0.40Q12.32 0.26 10.72 0.26L10.72 0.26Q9.98 0.26 9.39 0.11Q8.81-0.03 8.32-0.30Q7.82-0.56 7.41-0.93Q7.00-1.30 6.62-1.74L6.62-1.74L6.44-0.90Q6.33-0.39 6.03-0.19Q5.73 0 5.25 0L5.25 0ZM10.08-13.20L10.08-13.20Q9.53-13.20 9.09-13.10Q8.65-12.99 8.27-12.80Q7.89-12.61 7.57-12.31Q7.25-12.01 6.92-11.62L6.92-11.62L6.92-4.54Q7.49-3.91 8.15-3.66Q8.81-3.41 9.53-3.41L9.53-3.41Q10.22-3.41 10.80-3.69Q11.38-3.96 11.81-4.56Q12.24-5.17 12.48-6.13Q12.72-7.10 12.72-8.48L12.72-8.48Q12.72-9.81 12.53-10.71Q12.33-11.61 11.99-12.16Q11.64-12.72 11.16-12.96Q10.67-13.20 10.08-13.20Z" transform="translate(-1.9320214669051876, 24.101967799642214)"></path></g></g><g transform="translate(19, 0)"><g data-gra="path-name" fill="#333" transform="scale(1)"><path d="M2.09-24.10L7.08-24.10L7.08 0L2.09 0L2.09-24.10Z" transform="translate(-2.093023255813953, 24.101967799642214)"></path></g></g><g transform="translate(27, 0)"><g data-gra="path-name" fill="#333" transform="scale(1)"><path d="M1.61-16.70L6.60-16.70L6.60-6.10Q6.60-4.86 7.16-4.19Q7.73-3.51 8.82-3.51L8.82-3.51Q9.64-3.51 10.36-3.85Q11.08-4.19 11.75-4.80L11.75-4.80L11.75-16.70L16.74-16.70L16.74 0L13.65 0Q12.72 0 12.43-0.84L12.43-0.84L12.12-1.80Q11.64-1.34 11.13-0.96Q10.61-0.58 10.02-0.31Q9.43-0.05 8.76 0.10Q8.08 0.26 7.28 0.26L7.28 0.26Q5.91 0.26 4.85-0.22Q3.80-0.69 3.08-1.55Q2.35-2.40 1.98-3.56Q1.61-4.72 1.61-6.10L1.61-6.10L1.61-16.70Z" transform="translate(-1.6100178890876564, 24.101967799642214)"></path></g></g><g transform="translate(46, 0)"><g data-gra="path-name" fill="#333" transform="scale(1)"><path d="M9.08-16.95L9.08-16.95Q10.74-16.95 12.12-16.44Q13.49-15.92 14.48-14.94Q15.47-13.96 16.03-12.53Q16.58-11.11 16.58-9.31L16.58-9.31Q16.58-8.74 16.53-8.39Q16.49-8.03 16.36-7.82Q16.23-7.62 16.01-7.53Q15.79-7.45 15.46-7.45L15.46-7.45L5.83-7.45Q6.07-5.36 7.10-4.42Q8.13-3.48 9.76-3.48L9.76-3.48Q10.63-3.48 11.25-3.69Q11.88-3.90 12.37-4.15Q12.86-4.41 13.27-4.62Q13.69-4.83 14.14-4.83L14.14-4.83Q14.73-4.83 15.04-4.40L15.04-4.40L16.49-2.61Q15.71-1.72 14.82-1.17Q13.93-0.61 12.98-0.30Q12.04 0.02 11.10 0.14Q10.16 0.26 9.31 0.26L9.31 0.26Q7.55 0.26 6.01-0.31Q4.48-0.89 3.32-2.01Q2.17-3.14 1.51-4.81Q0.84-6.49 0.84-8.71L0.84-8.71Q0.84-10.38 1.41-11.88Q1.98-13.38 3.05-14.51Q4.12-15.63 5.64-16.29Q7.16-16.95 9.08-16.95ZM9.18-13.51L9.18-13.51Q7.74-13.51 6.94-12.69Q6.13-11.88 5.88-10.35L5.88-10.35L12.11-10.35Q12.11-10.95 11.95-11.51Q11.80-12.08 11.46-12.52Q11.11-12.96 10.55-13.23Q9.98-13.51 9.18-13.51Z" transform="translate(-0.8372093023255813, 24.101967799642214)"></path></g></g><g transform="translate(65, 0)"><g data-gra="path-name" fill="#333" transform="scale(1)"><path d="M15.75 0L13.46 0Q12.75 0 12.39-0.19Q12.03-0.39 11.79-1.00L11.79-1.00L11.43-1.92Q10.80-1.38 10.22-0.98Q9.64-0.58 9.02-0.30Q8.40-0.02 7.70 0.12Q7.00 0.26 6.15 0.26L6.15 0.26Q5.01 0.26 4.07-0.04Q3.14-0.34 2.49-0.92Q1.84-1.50 1.48-2.36Q1.13-3.22 1.13-4.35L1.13-4.35Q1.13-5.23 1.58-6.17Q2.03-7.10 3.14-7.86Q4.25-8.63 6.13-9.14Q8.02-9.66 10.88-9.72L10.88-9.72L10.88-10.43Q10.88-11.90 10.28-12.55Q9.68-13.20 8.57-13.20L8.57-13.20Q7.68-13.20 7.12-13.01Q6.55-12.82 6.11-12.57Q5.67-12.33 5.25-12.14Q4.83-11.95 4.25-11.95L4.25-11.95Q3.74-11.95 3.37-12.20Q3.01-12.45 2.80-12.82L2.80-12.82L1.90-14.38Q3.41-15.71 5.26-16.37Q7.10-17.02 9.21-17.02L9.21-17.02Q10.72-17.02 11.94-16.53Q13.15-16.04 14.00-15.16Q14.84-14.28 15.30-13.07Q15.75-11.87 15.75-10.43L15.75-10.43L15.75 0ZM7.73-3.04L7.73-3.04Q8.69-3.04 9.42-3.38Q10.14-3.72 10.88-4.48L10.88-4.48L10.88-6.79Q9.39-6.73 8.42-6.54Q7.45-6.34 6.89-6.05Q6.33-5.76 6.11-5.39Q5.89-5.02 5.89-4.59L5.89-4.59Q5.89-3.74 6.36-3.39Q6.83-3.04 7.73-3.04Z" transform="translate(-1.1270125223613594, 24.101967799642214)"></path></g></g><g transform="translate(83, 0)"><g data-gra="path-name" fill="#333" transform="scale(1)"><path d="M13.27-14.80L12.14-13.04Q11.95-12.74 11.73-12.61Q11.51-12.48 11.17-12.48L11.17-12.48Q10.82-12.48 10.47-12.63Q10.11-12.78 9.70-12.96Q9.29-13.14 8.77-13.29Q8.26-13.44 7.60-13.44L7.60-13.44Q6.65-13.44 6.14-13.08Q5.64-12.72 5.64-12.08L5.64-12.08Q5.64-11.61 5.97-11.30Q6.30-11.00 6.84-10.76Q7.39-10.53 8.08-10.32Q8.77-10.11 9.50-9.85Q10.22-9.60 10.92-9.25Q11.61-8.90 12.16-8.40Q12.70-7.89 13.03-7.16Q13.36-6.44 13.36-5.43L13.36-5.43Q13.36-4.19 12.91-3.14Q12.46-2.09 11.57-1.34Q10.67-0.58 9.36-0.16Q8.05 0.26 6.34 0.26L6.34 0.26Q5.49 0.26 4.64 0.10Q3.78-0.06 2.99-0.34Q2.19-0.61 1.51-0.99Q0.84-1.37 0.35-1.80L0.35-1.80L1.51-3.64Q1.72-3.96 2.01-4.15Q2.30-4.33 2.77-4.33L2.77-4.33Q3.20-4.33 3.55-4.14Q3.90-3.94 4.30-3.72Q4.70-3.49 5.24-3.30Q5.78-3.11 6.60-3.11L6.60-3.11Q7.18-3.11 7.58-3.23Q7.99-3.35 8.23-3.56Q8.47-3.77 8.58-4.03Q8.69-4.28 8.69-4.56L8.69-4.56Q8.69-5.06 8.36-5.38Q8.02-5.70 7.47-5.93Q6.92-6.17 6.22-6.37Q5.52-6.57 4.80-6.83Q4.07-7.08 3.37-7.45Q2.67-7.81 2.13-8.36Q1.58-8.92 1.24-9.72Q0.90-10.53 0.90-11.67L0.90-11.67Q0.90-12.74 1.31-13.69Q1.72-14.65 2.54-15.38Q3.36-16.10 4.60-16.53Q5.84-16.95 7.50-16.95L7.50-16.95Q8.40-16.95 9.25-16.79Q10.09-16.63 10.84-16.34Q11.58-16.05 12.19-15.66Q12.80-15.26 13.27-14.80L13.27-14.80Z" transform="translate(-0.35420393559928437, 24.101967799642214)"></path></g></g><g transform="translate(100, 0)"><g data-gra="path-name" fill="#333" transform="scale(1)"><path d="M7.79 0.26L7.79 0.26Q6.60 0.26 5.69-0.09Q4.78-0.43 4.16-1.07Q3.54-1.71 3.22-2.61Q2.90-3.51 2.90-4.62L2.90-4.62L2.90-13.25L1.48-13.25Q1.09-13.25 0.82-13.50Q0.55-13.75 0.55-14.23L0.55-14.23L0.55-16.18L3.20-16.70L4.19-20.77Q4.38-21.54 5.28-21.54L5.28-21.54L7.89-21.54L7.89-16.66L11.95-16.66L11.95-13.25L7.89-13.25L7.89-4.96Q7.89-4.38 8.17-4.00Q8.45-3.62 8.98-3.62L8.98-3.62Q9.26-3.62 9.44-3.68Q9.63-3.74 9.76-3.81Q9.90-3.88 10.02-3.94Q10.14-3.99 10.30-3.99L10.30-3.99Q10.53-3.99 10.67-3.89Q10.80-3.78 10.95-3.56L10.95-3.56L12.46-1.19Q11.50-0.47 10.29-0.10Q9.08 0.26 7.79 0.26Z" transform="translate(-0.5474060822898031, 24.101967799642214)"></path></g></g><g transform="translate(115, 1.8531305903398927)"><g><g class="imagesvg"><g><rect fill="#333" fill-opacity="0" stroke-width="2" x="0" y="0" width="20.653309481216453" height="20.653309481216453" class="image-rect"></rect> <svg filter="url(#colors5916316296)" x="0" y="0" width="20.653309481216453" height="20.653309481216453" filtersec="colorsf9010080888" class="image-svg-svg primary" style="overflow: visible;"><svg xmlns="http://www.w3.org/2000/svg" viewBox="0.6650000214576721 0.6650000214576721 98.66999816894531 98.66999816894531"><path fill="#333333" d="M50 .665C22.8.665.665 22.793.665 50S22.793 99.335 50 99.335 99.335 77.207 99.335 50 77.2.665 50 .665zm16.719 89.369A19.6 19.6 0 0 0 69.734 79.6c0-10.881-8.853-19.734-19.734-19.734S30.266 68.72 30.266 79.601c0 3.836 1.118 7.404 3.015 10.433-5.858-4.83-9.59-12.137-9.59-20.3 0-14.51 11.805-26.31 26.309-26.31s26.31 11.8 26.31 26.31c0 8.163-3.74 15.47-9.591 20.3zM33.557 79.6c0-9.067 7.376-16.443 16.443-16.443s16.443 7.376 16.443 16.443S59.067 96.044 50 96.044 33.557 88.668 33.557 79.6zm40.62 7.148c3.402-4.823 5.424-10.68 5.424-17.015 0-16.318-13.276-29.601-29.601-29.601S20.399 53.415 20.399 69.734c0 6.334 2.015 12.2 5.423 17.015-7.362-6.624-11.999-16.222-11.999-26.882 0-19.948 16.23-36.177 36.177-36.177s36.177 16.23 36.177 36.177c0 10.66-4.637 20.258-12 26.882zm7.522-3.401a39.249 39.249 0 0 0 7.769-23.481c0-21.763-17.705-39.468-39.468-39.468S10.532 38.104 10.532 59.867c0 8.79 2.891 16.912 7.77 23.48C9.475 74.958 3.955 63.11 3.955 50 3.956 24.608 24.615 3.956 50 3.956S96.044 24.608 96.044 50c0 13.11-5.52 24.957-14.345 33.348z"></path></svg></svg> <defs><filter id="colors5916316296"><feColorMatrix type="matrix" values="0 0 0 0 0.19921875  0 0 0 0 0.19921875  0 0 0 0 0.19921875  0 0 0 1 0" class="icon-fecolormatrix"></feColorMatrix></filter> <filter id="colorsf9010080888"><feColorMatrix type="matrix" values="0 0 0 0 0.99609375  0 0 0 0 0.99609375  0 0 0 0 0.99609375  0 0 0 1 0" class="icon-fecolormatrix"></feColorMatrix></filter> <filter id="colorsb1221921958"><feColorMatrix type="matrix" values="0 0 0 0 0  0 0 0 0 0  0 0 0 0 0  0 0 0 1 0" class="icon-fecolormatrix"></feColorMatrix></filter></defs></g></g></g></g><g transform="translate(139, 0)"><g data-gra="path-name" fill="#333" transform="scale(1)"><path d="M5.18 0L0-16.70L3.99-16.70Q4.52-16.70 4.91-16.45Q5.30-16.21 5.38-15.83L5.38-15.83L7.05-8.34Q7.25-7.49 7.41-6.68Q7.57-5.88 7.70-5.09L7.70-5.09Q7.92-5.88 8.17-6.67Q8.42-7.47 8.66-8.34L8.66-8.34L10.75-15.84Q10.85-16.21 11.22-16.46Q11.59-16.71 12.08-16.71L12.08-16.71L14.30-16.71Q14.83-16.71 15.21-16.46Q15.58-16.21 15.68-15.84L15.68-15.84L17.68-8.34Q17.90-7.49 18.14-6.68Q18.37-5.88 18.58-5.06L18.58-5.06Q18.71-5.86 18.89-6.66Q19.08-7.45 19.29-8.34L19.29-8.34L21.06-15.83Q21.14-16.21 21.52-16.45Q21.90-16.70 22.38-16.70L22.38-16.70L26.18-16.70L20.99 0L16.94 0Q16.62 0 16.39-0.19Q16.16-0.39 16.04-0.84L16.04-0.84L13.65-9.16Q13.49-9.72 13.35-10.27Q13.20-10.82 13.09-11.37L13.09-11.37Q12.98-10.80 12.84-10.25Q12.70-9.69 12.53-9.13L12.53-9.13L10.11-0.84Q9.87 0 9.05 0L9.05 0L5.18 0Z" transform="translate(0, 24.101967799642214)"></path></g></g><g transform="translate(169, 0)"><g data-gra="path-name" fill="#333" transform="scale(1)"><path d="M9.08-16.95L9.08-16.95Q10.74-16.95 12.12-16.44Q13.49-15.92 14.48-14.94Q15.47-13.96 16.03-12.53Q16.58-11.11 16.58-9.31L16.58-9.31Q16.58-8.74 16.53-8.39Q16.49-8.03 16.36-7.82Q16.23-7.62 16.01-7.53Q15.79-7.45 15.46-7.45L15.46-7.45L5.83-7.45Q6.07-5.36 7.10-4.42Q8.13-3.48 9.76-3.48L9.76-3.48Q10.63-3.48 11.25-3.69Q11.88-3.90 12.37-4.15Q12.86-4.41 13.27-4.62Q13.69-4.83 14.14-4.83L14.14-4.83Q14.73-4.83 15.04-4.40L15.04-4.40L16.49-2.61Q15.71-1.72 14.82-1.17Q13.93-0.61 12.98-0.30Q12.04 0.02 11.10 0.14Q10.16 0.26 9.31 0.26L9.31 0.26Q7.55 0.26 6.01-0.31Q4.48-0.89 3.32-2.01Q2.17-3.14 1.51-4.81Q0.84-6.49 0.84-8.71L0.84-8.71Q0.84-10.38 1.41-11.88Q1.98-13.38 3.05-14.51Q4.12-15.63 5.64-16.29Q7.16-16.95 9.08-16.95ZM9.18-13.51L9.18-13.51Q7.74-13.51 6.94-12.69Q6.13-11.88 5.88-10.35L5.88-10.35L12.11-10.35Q12.11-10.95 11.95-11.51Q11.80-12.08 11.46-12.52Q11.11-12.96 10.55-13.23Q9.98-13.51 9.18-13.51Z" transform="translate(-0.8372093023255813, 24.101967799642214)"></path></g></g><g transform="translate(188, 0)"><g data-gra="path-name" fill="#333" transform="scale(1)"><path d="M2.09-24.10L7.08-24.10L7.08 0L2.09 0L2.09-24.10Z" transform="translate(-2.093023255813953, 24.101967799642214)"></path></g></g></g> <g data-gra="path-slogan" fill-rule="" class="tp-slogan" fill="#333" transform="translate(5,30.360000610351562)"><rect x="0" height="1" y="4.49500036239624" width="31.474498748779297"></rect> <rect height="1" y="4.49500036239624" width="31.474498748779297" x="151.51449966430664"></rect> <g transform="translate(34.4744987487793,0)"><g transform="scale(1)"><path d="M1.08-7.87L1.08 0L3.59 0C4.03 0 4.43-0.05 4.80-0.14C5.17-0.24 5.48-0.38 5.75-0.58C6.01-0.77 6.22-1.01 6.36-1.30C6.50-1.58 6.58-1.92 6.58-2.30C6.58-2.85 6.42-3.28 6.10-3.59C5.78-3.90 5.33-4.10 4.75-4.19L4.75-4.24C5.22-4.36 5.56-4.57 5.78-4.89C6.01-5.21 6.12-5.56 6.12-5.95C6.12-6.30 6.05-6.59 5.92-6.83C5.79-7.08 5.61-7.28 5.37-7.43C5.13-7.58 4.85-7.69 4.52-7.76C4.19-7.84 3.82-7.87 3.42-7.87ZM3.24-4.51L2.08-4.51L2.08-7.08L3.29-7.08C3.90-7.08 4.37-6.99 4.67-6.80C4.98-6.61 5.14-6.30 5.14-5.87C5.14-5.43 4.99-5.09 4.70-4.86C4.41-4.63 3.92-4.51 3.24-4.51ZM3.44-0.79L2.08-0.79L2.08-3.77L3.44-3.77C4.14-3.77 4.67-3.65 5.04-3.43C5.41-3.20 5.59-2.84 5.59-2.35C5.59-1.82 5.40-1.42 5.03-1.17C4.65-0.92 4.12-0.79 3.44-0.79ZM8.14-7.87L8.14 0L12.79 0L12.79-0.85L9.13-0.85L9.13-3.71L12.12-3.71L12.12-4.56L9.13-4.56L9.13-7.03L12.67-7.03L12.67-7.87ZM14.48-1.72L13.88-1.02C14.23-0.66 14.64-0.38 15.11-0.17C15.58 0.04 16.09 0.14 16.64 0.14C17.06 0.14 17.43 0.09 17.76-0.03C18.09-0.15 18.37-0.31 18.60-0.51C18.83-0.71 19.01-0.95 19.13-1.22C19.26-1.50 19.32-1.79 19.32-2.10C19.32-2.39 19.28-2.64 19.19-2.86C19.11-3.08 19.00-3.27 18.85-3.44C18.71-3.60 18.54-3.75 18.34-3.87C18.14-3.99 17.92-4.10 17.70-4.20L16.58-4.68C16.42-4.74 16.27-4.81 16.12-4.89C15.96-4.97 15.82-5.05 15.70-5.15C15.57-5.25 15.47-5.37 15.39-5.50C15.31-5.63 15.28-5.80 15.28-5.99C15.28-6.35 15.41-6.63 15.68-6.83C15.95-7.04 16.30-7.14 16.74-7.14C17.11-7.14 17.44-7.07 17.73-6.94C18.02-6.81 18.29-6.63 18.53-6.40L19.07-7.04C18.79-7.33 18.45-7.57 18.05-7.75C17.65-7.93 17.21-8.02 16.74-8.02C16.38-8.02 16.05-7.96 15.75-7.86C15.45-7.76 15.19-7.61 14.97-7.42C14.75-7.23 14.58-7.01 14.45-6.76C14.33-6.50 14.27-6.22 14.27-5.93C14.27-5.64 14.32-5.39 14.41-5.17C14.51-4.95 14.63-4.76 14.78-4.60C14.94-4.44 15.11-4.30 15.30-4.19C15.49-4.08 15.68-3.98 15.86-3.90L16.99-3.41C17.18-3.32 17.35-3.24 17.51-3.16C17.67-3.08 17.81-2.99 17.92-2.89C18.04-2.79 18.13-2.67 18.20-2.53C18.27-2.39 18.30-2.22 18.30-2.02C18.30-1.63 18.16-1.32 17.87-1.09C17.58-0.85 17.18-0.73 16.66-0.73C16.25-0.73 15.85-0.82 15.47-1.00C15.09-1.18 14.76-1.42 14.48-1.72ZM22.26-7.03L22.26 0L23.27 0L23.27-7.03L25.64-7.03L25.64-7.87L19.88-7.87L19.88-7.03ZM30.06-3.97C30.06-4.46 30.12-4.90 30.23-5.29C30.34-5.68 30.50-6.02 30.70-6.29C30.91-6.56 31.15-6.77 31.43-6.92C31.72-7.07 32.04-7.14 32.39-7.14C32.74-7.14 33.06-7.07 33.34-6.92C33.63-6.77 33.87-6.56 34.07-6.29C34.28-6.02 34.44-5.68 34.55-5.29C34.66-4.90 34.72-4.46 34.72-3.97C34.72-3.47 34.66-3.01 34.55-2.61C34.44-2.21 34.28-1.86 34.07-1.57C33.87-1.28 33.63-1.06 33.34-0.91C33.06-0.76 32.74-0.68 32.39-0.68C32.04-0.68 31.72-0.76 31.43-0.91C31.15-1.06 30.91-1.28 30.70-1.57C30.50-1.86 30.34-2.21 30.23-2.61C30.12-3.01 30.06-3.47 30.06-3.97ZM35.93 1.79L35.74 1.01C35.62 1.04 35.50 1.07 35.37 1.09C35.24 1.12 35.08 1.13 34.91 1.13C34.48 1.13 34.09 1.04 33.76 0.88C33.42 0.71 33.16 0.45 32.98 0.10C33.39 0.02 33.77-0.12 34.12-0.34C34.46-0.56 34.75-0.85 35.00-1.19C35.24-1.54 35.43-1.95 35.56-2.42C35.69-2.89 35.76-3.40 35.76-3.97C35.76-4.60 35.68-5.16 35.51-5.66C35.35-6.16 35.12-6.58 34.82-6.93C34.52-7.28 34.16-7.55 33.75-7.73C33.34-7.92 32.88-8.02 32.39-8.02C31.89-8.02 31.44-7.92 31.03-7.74C30.61-7.56 30.26-7.29 29.96-6.94C29.67-6.59 29.44-6.17 29.27-5.67C29.11-5.17 29.03-4.60 29.03-3.97C29.03-3.40 29.10-2.87 29.23-2.39C29.37-1.92 29.56-1.50 29.81-1.15C30.07-0.80 30.37-0.52 30.72-0.30C31.07-0.08 31.46 0.05 31.90 0.11C32.13 0.65 32.49 1.10 32.98 1.45C33.46 1.79 34.07 1.97 34.80 1.97C35.03 1.97 35.25 1.95 35.45 1.91C35.65 1.87 35.81 1.83 35.93 1.79ZM37.42-7.87L37.42-3.25C37.42-2.62 37.49-2.09 37.63-1.66C37.78-1.22 37.97-0.87 38.23-0.61C38.48-0.34 38.78-0.15 39.13-0.03C39.47 0.09 39.85 0.14 40.25 0.14C40.65 0.14 41.02 0.09 41.36-0.03C41.71-0.15 42.01-0.34 42.26-0.61C42.51-0.87 42.71-1.22 42.85-1.66C43.00-2.09 43.07-2.62 43.07-3.25L43.07-7.87L42.11-7.87L42.11-3.23C42.11-2.76 42.06-2.36 41.96-2.04C41.87-1.72 41.74-1.46 41.57-1.27C41.40-1.08 41.20-0.94 40.98-0.86C40.76-0.77 40.51-0.73 40.25-0.73C39.99-0.73 39.75-0.77 39.53-0.86C39.30-0.94 39.11-1.08 38.95-1.27C38.78-1.46 38.65-1.72 38.56-2.04C38.46-2.36 38.41-2.76 38.41-3.23L38.41-7.87ZM48.32-3.20L45.96-3.20L46.33-4.40C46.48-4.84 46.61-5.28 46.74-5.72C46.87-6.15 46.99-6.60 47.11-7.06L47.16-7.06C47.29-6.60 47.42-6.15 47.54-5.72C47.67-5.28 47.81-4.84 47.95-4.40ZM48.58-2.40L49.32 0L50.39 0L47.72-7.87L46.60-7.87L43.93 0L44.95 0L45.71-2.40ZM51.50-7.87L51.50 0L55.94 0L55.94-0.85L52.50-0.85L52.50-7.87ZM57.34-7.87L57.34 0L58.33 0L58.33-7.87ZM62.12-7.03L62.12 0L63.13 0L63.13-7.03L65.51-7.03L65.51-7.87L59.75-7.87L59.75-7.03ZM68.03-3.05L68.03 0L69.04 0L69.04-3.05L71.40-7.87L70.36-7.87L69.35-5.65C69.23-5.36 69.10-5.08 68.96-4.80C68.83-4.52 68.69-4.23 68.56-3.94L68.51-3.94C68.37-4.23 68.24-4.52 68.12-4.80C68.00-5.08 67.88-5.36 67.75-5.65L66.73-7.87L65.66-7.87ZM76.52-7.03L76.52 0L77.53 0L77.53-7.03L79.91-7.03L79.91-7.87L74.15-7.87L74.15-7.03ZM83.94 0.14C84.44 0.14 84.89 0.05 85.30-0.14C85.71-0.34 86.07-0.61 86.37-0.97C86.67-1.32 86.90-1.75 87.07-2.26C87.23-2.77 87.31-3.34 87.31-3.97C87.31-4.60 87.23-5.16 87.07-5.66C86.90-6.16 86.67-6.58 86.37-6.93C86.07-7.28 85.71-7.55 85.30-7.73C84.89-7.92 84.44-8.02 83.94-8.02C83.44-8.02 82.99-7.92 82.58-7.74C82.17-7.56 81.81-7.29 81.52-6.94C81.22-6.59 80.99-6.17 80.83-5.67C80.66-5.17 80.58-4.60 80.58-3.97C80.58-3.34 80.66-2.77 80.83-2.26C80.99-1.75 81.22-1.32 81.52-0.97C81.81-0.61 82.17-0.34 82.58-0.14C82.99 0.05 83.44 0.14 83.94 0.14ZM83.94-0.73C83.59-0.73 83.27-0.81 82.99-0.96C82.70-1.11 82.46-1.33 82.25-1.61C82.05-1.90 81.89-2.24 81.78-2.63C81.67-3.03 81.61-3.48 81.61-3.97C81.61-4.46 81.67-4.90 81.78-5.29C81.89-5.68 82.05-6.02 82.25-6.29C82.46-6.56 82.70-6.77 82.99-6.92C83.27-7.07 83.59-7.14 83.94-7.14C84.29-7.14 84.61-7.07 84.89-6.92C85.18-6.77 85.42-6.56 85.63-6.29C85.83-6.02 85.99-5.68 86.10-5.29C86.21-4.90 86.27-4.46 86.27-3.97C86.27-3.48 86.21-3.03 86.10-2.63C85.99-2.24 85.83-1.90 85.63-1.61C85.42-1.33 85.18-1.11 84.89-0.96C84.61-0.81 84.29-0.73 83.94-0.73ZM88.13-7.87L89.80 0L90.98 0L92.15-4.74C92.21-5.04 92.28-5.34 92.35-5.63C92.41-5.93 92.48-6.22 92.54-6.53L92.59-6.53C92.66-6.22 92.72-5.93 92.78-5.63C92.84-5.34 92.90-5.04 92.98-4.74L94.16 0L95.36 0L97.00-7.87L96.04-7.87L95.21-3.59C95.13-3.16 95.05-2.74 94.98-2.32C94.91-1.90 94.84-1.48 94.76-1.04L94.72-1.04C94.62-1.48 94.52-1.90 94.43-2.33C94.33-2.75 94.24-3.17 94.14-3.59L93.05-7.87L92.14-7.87L91.04-3.59C90.96-3.16 90.86-2.74 90.77-2.32C90.67-1.90 90.58-1.48 90.49-1.04L90.44-1.04C90.37-1.48 90.30-1.90 90.22-2.32C90.14-2.73 90.06-3.16 89.99-3.59L89.16-7.87ZM98.36-7.87L98.36 0L103.02 0L103.02-0.85L99.36-0.85L99.36-3.71L102.35-3.71L102.35-4.56L99.36-4.56L99.36-7.03L102.90-7.03L102.90-7.87ZM104.69-7.87L104.69 0L109.13 0L109.13-0.85L105.68-0.85L105.68-7.87ZM110.28-1.72L109.68-1.02C110.02-0.66 110.43-0.38 110.90-0.17C111.38 0.04 111.89 0.14 112.44 0.14C112.86 0.14 113.23 0.09 113.56-0.03C113.88-0.15 114.16-0.31 114.40-0.51C114.63-0.71 114.81-0.95 114.93-1.22C115.05-1.50 115.12-1.79 115.12-2.10C115.12-2.39 115.07-2.64 114.99-2.86C114.91-3.08 114.79-3.27 114.65-3.44C114.50-3.60 114.33-3.75 114.13-3.87C113.93-3.99 113.72-4.10 113.50-4.20L112.38-4.68C112.22-4.74 112.06-4.81 111.91-4.89C111.76-4.97 111.62-5.05 111.49-5.15C111.36-5.25 111.26-5.37 111.19-5.50C111.11-5.63 111.07-5.80 111.07-5.99C111.07-6.35 111.21-6.63 111.47-6.83C111.74-7.04 112.10-7.14 112.54-7.14C112.90-7.14 113.23-7.07 113.53-6.94C113.82-6.81 114.08-6.63 114.32-6.40L114.86-7.04C114.58-7.33 114.24-7.57 113.84-7.75C113.44-7.93 113.01-8.02 112.54-8.02C112.18-8.02 111.85-7.96 111.55-7.86C111.25-7.76 110.99-7.61 110.77-7.42C110.55-7.23 110.37-7.01 110.25-6.76C110.13-6.50 110.06-6.22 110.06-5.93C110.06-5.64 110.11-5.39 110.21-5.17C110.30-4.95 110.43-4.76 110.58-4.60C110.73-4.44 110.90-4.30 111.10-4.19C111.29-4.08 111.48-3.98 111.66-3.90L112.79-3.41C112.97-3.32 113.14-3.24 113.30-3.16C113.46-3.08 113.60-2.99 113.72-2.89C113.83-2.79 113.93-2.67 113.99-2.53C114.06-2.39 114.10-2.22 114.10-2.02C114.10-1.63 113.95-1.32 113.66-1.09C113.38-0.85 112.97-0.73 112.45-0.73C112.04-0.73 111.65-0.82 111.27-1.00C110.89-1.18 110.56-1.42 110.28-1.72Z" transform="translate(-1.08, 8.016)"></path></g></g></g></g><defs v-gra="od"></defs></svg>
